<svg width="127" height="27" viewBox="0 0 127 27" fill="none" xmlns="http://www.w3.org/2000/svg">
<path d="M34.893 17.444H29.655L28.755 20H26.613L31.095 7.472H33.471L37.953 20L35.793 20L34.893 17.444ZM34.317 15.77L32.283 9.956L30.231 15.77L34.317 15.77ZM41.9538 6.68V20H39.9018V6.68H41.9538ZM46.6999 6.68V20H44.6479V6.68H46.6999ZM56.1217 11.54C56.4697 11.084 56.9437 10.7 57.5437 10.388C58.1437 10.076 58.8217 9.92 59.5777 9.92C60.4417 9.92 61.2277 10.136 61.9357 10.568C62.6557 10.988 63.2197 11.582 63.6277 12.35C64.0357 13.118 64.2397 14 64.2397 14.996C64.2397 15.992 64.0357 16.886 63.6277 17.678C63.2197 18.458 62.6557 19.07 61.9357 19.514C61.2277 19.946 60.4417 20.162 59.5777 20.162C58.8217 20.162 58.1497 20.012 57.5617 19.712C56.9737 19.4 56.4937 19.016 56.1217 18.56V24.716H54.0697V10.082H56.1217V11.54ZM62.1517 14.996C62.1517 14.312 62.0077 13.724 61.7197 13.232C61.4437 12.728 61.0717 12.35 60.6037 12.098C60.1477 11.834 59.6557 11.702 59.1277 11.702C58.6117 11.702 58.1197 11.834 57.6517 12.098C57.1957 12.362 56.8237 12.746 56.5357 13.25C56.2597 13.754 56.1217 14.348 56.1217 15.032C56.1217 15.716 56.2597 16.316 56.5357 16.832C56.8237 17.336 57.1957 17.72 57.6517 17.984C58.1197 18.248 58.6117 18.38 59.1277 18.38C59.6557 18.38 60.1477 18.248 60.6037 17.984C61.0717 17.708 61.4437 17.312 61.7197 16.796C62.0077 16.28 62.1517 15.68 62.1517 14.996ZM68.3209 11.522C68.6209 11.018 69.0169 10.628 69.5089 10.352C70.0129 10.064 70.6069 9.92 71.2909 9.92V12.044H70.7689C69.9649 12.044 69.3529 12.248 68.9329 12.656C68.5249 13.064 68.3209 13.772 68.3209 14.78V20H66.2689V10.082H68.3209V11.522ZM77.4791 20.162C76.5431 20.162 75.6971 19.952 74.9411 19.532C74.1851 19.1 73.5911 18.5 73.1591 17.732C72.7271 16.952 72.5111 16.052 72.5111 15.032C72.5111 14.024 72.7331 13.13 73.1771 12.35C73.6211 11.57 74.2271 10.97 74.9951 10.55C75.7631 10.13 76.6211 9.92 77.5691 9.92C78.5171 9.92 79.3751 10.13 80.1431 10.55C80.9111 10.97 81.5171 11.57 81.9611 12.35C82.4051 13.13 82.6271 14.024 82.6271 15.032C82.6271 16.04 82.3991 16.934 81.9431 17.714C81.4871 18.494 80.8631 19.1 80.0711 19.532C79.2911 19.952 78.4271 20.162 77.4791 20.162ZM77.4791 18.38C78.0071 18.38 78.4991 18.254 78.9551 18.002C79.4231 17.75 79.8011 17.372 80.0891 16.868C80.3771 16.364 80.5211 15.752 80.5211 15.032C80.5211 14.312 80.3831 13.706 80.1071 13.214C79.8311 12.71 79.4651 12.332 79.0091 12.08C78.5531 11.828 78.0611 11.702 77.5331 11.702C77.0051 11.702 76.5131 11.828 76.0571 12.08C75.6131 12.332 75.2591 12.71 74.9951 13.214C74.7311 13.706 74.5991 14.312 74.5991 15.032C74.5991 16.1 74.8691 16.928 75.4091 17.516C75.9611 18.092 76.6511 18.38 77.4791 18.38ZM85.6997 8.768C85.3277 8.768 85.0157 8.642 84.7637 8.39C84.5117 8.138 84.3857 7.826 84.3857 7.454C84.3857 7.082 84.5117 6.77 84.7637 6.518C85.0157 6.266 85.3277 6.14 85.6997 6.14C86.0597 6.14 86.3657 6.266 86.6177 6.518C86.8697 6.77 86.9957 7.082 86.9957 7.454C86.9957 7.826 86.8697 8.138 86.6177 8.39C86.3657 8.642 86.0597 8.768 85.6997 8.768ZM86.7077 21.944C86.7077 22.916 86.4617 23.618 85.9697 24.05C85.4897 24.494 84.7877 24.716 83.8637 24.716H82.8017V22.988H83.5037C83.9237 22.988 84.2177 22.904 84.3857 22.736C84.5657 22.58 84.6557 22.316 84.6557 21.944V10.082H86.7077V21.944ZM98.4918 14.798C98.4918 15.17 98.4678 15.506 98.4198 15.806L90.8418 15.806C90.9018 16.598 91.1958 17.234 91.7238 17.714C92.2518 18.194 92.8998 18.434 93.6678 18.434C94.7718 18.434 95.5518 17.972 96.0078 17.048H98.2218C97.9218 17.96 97.3758 18.71 96.5838 19.298C95.8038 19.874 94.8318 20.162 93.6678 20.162C92.7198 20.162 91.8678 19.952 91.1118 19.532C90.3678 19.1 89.7798 18.5 89.3478 17.732C88.9278 16.952 88.7178 16.052 88.7178 15.032C88.7178 14.012 88.9218 13.118 89.3298 12.35C89.7498 11.57 90.3318 10.97 91.0758 10.55C91.8318 10.13 92.6958 9.92 93.6678 9.92C94.6038 9.92 95.4378 10.124 96.1698 10.532C96.9018 10.94 97.4718 11.516 97.8798 12.26C98.2878 12.992 98.4918 13.838 98.4918 14.798ZM96.3498 14.15C96.3378 13.394 96.0678 12.788 95.5398 12.332C95.0118 11.876 94.3578 11.648 93.5778 11.648C92.8698 11.648 92.2638 11.876 91.7598 12.332C91.2558 12.776 90.9558 13.382 90.8598 14.15L96.3498 14.15ZM99.8271 15.032C99.8271 14.012 100.031 13.118 100.439 12.35C100.859 11.57 101.435 10.97 102.167 10.55C102.899 10.13 103.739 9.92 104.687 9.92C105.887 9.92 106.877 10.208 107.657 10.784C108.449 11.348 108.983 12.158 109.259 13.214H107.045C106.865 12.722 106.577 12.338 106.181 12.062C105.785 11.786 105.287 11.648 104.687 11.648C103.847 11.648 103.175 11.948 102.671 12.548C102.179 13.136 101.933 13.964 101.933 15.032C101.933 16.1 102.179 16.934 102.671 17.534C103.175 18.134 103.847 18.434 104.687 18.434C105.875 18.434 106.661 17.912 107.045 16.868H109.259C108.971 17.876 108.431 18.68 107.639 19.28C106.847 19.868 105.863 20.162 104.687 20.162C103.739 20.162 102.899 19.952 102.167 19.532C101.435 19.1 100.859 18.5 100.439 17.732C100.031 16.952 99.8271 16.052 99.8271 15.032ZM113.698 11.756V17.246C113.698 17.618 113.782 17.888 113.95 18.056C114.13 18.212 114.43 18.29 114.85 18.29H116.11V20H114.49C113.566 20 112.858 19.784 112.366 19.352C111.874 18.92 111.628 18.218 111.628 17.246V11.756H110.458V10.082H111.628V7.616L113.698 7.616V10.082H116.11V11.756H113.698ZM121.601 20.162C120.821 20.162 120.119 20.024 119.495 19.748C118.883 19.46 118.397 19.076 118.037 18.596C117.677 18.104 117.485 17.558 117.461 16.958H119.585C119.621 17.378 119.819 17.732 120.179 18.02C120.551 18.296 121.013 18.434 121.565 18.434C122.141 18.434 122.585 18.326 122.897 18.11C123.221 17.882 123.383 17.594 123.383 17.246C123.383 16.874 123.203 16.598 122.843 16.418C122.495 16.238 121.937 16.04 121.169 15.824C120.425 15.62 119.819 15.422 119.351 15.23C118.883 15.038 118.475 14.744 118.127 14.348C117.791 13.952 117.623 13.43 117.623 12.782C117.623 12.254 117.779 11.774 118.091 11.342C118.403 10.898 118.847 10.55 119.423 10.298C120.011 10.046 120.683 9.92 121.439 9.92C122.567 9.92 123.473 10.208 124.157 10.784C124.853 11.348 125.225 12.122 125.273 13.106H123.221C123.185 12.662 123.005 12.308 122.681 12.044C122.357 11.78 121.919 11.648 121.367 11.648C120.827 11.648 120.413 11.75 120.125 11.954C119.837 12.158 119.693 12.428 119.693 12.764C119.693 13.028 119.789 13.25 119.981 13.43C120.173 13.61 120.407 13.754 120.683 13.862C120.959 13.958 121.367 14.084 121.907 14.24C122.627 14.432 123.215 14.63 123.671 14.834C124.139 15.026 124.541 15.314 124.877 15.698C125.213 16.082 125.387 16.592 125.399 17.228C125.399 17.792 125.243 18.296 124.931 18.74C124.619 19.184 124.175 19.532 123.599 19.784C123.035 20.036 122.369 20.162 121.601 20.162Z" fill="#A4A4A4"/>
<rect x="0.000976562" y="5" width="7.28571" height="7.28571" rx="1" fill="#A4A4A4"/>
<rect x="9.71582" y="5" width="7.28571" height="7.28571" rx="1" fill="#A4A4A4"/>
<rect x="9.71582" y="14.7144" width="7.28571" height="7.28571" rx="1" fill="#A4A4A4"/>
<rect x="0.000976562" y="14.7144" width="7.28571" height="7.28571" rx="1" fill="#A4A4A4"/>
</svg>
