<svg width="163" height="27" viewBox="0 0 163 27" fill="none" xmlns="http://www.w3.org/2000/svg">
<path d="M36.099 11.216C36.099 11.852 35.949 12.452 35.649 13.016C35.349 13.58 34.869 14.042 34.209 14.402C33.549 14.75 32.703 14.924 31.671 14.924L29.403 14.924V20H27.351L27.351 7.49L31.671 7.49C32.631 7.49 33.441 7.658 34.101 7.994C34.773 8.318 35.271 8.762 35.595 9.326C35.931 9.89 36.099 10.52 36.099 11.216ZM31.671 13.25C32.451 13.25 33.033 13.076 33.417 12.728C33.801 12.368 33.993 11.864 33.993 11.216C33.993 9.848 33.219 9.164 31.671 9.164L29.403 9.164L29.403 13.25L31.671 13.25ZM40.1081 11.522C40.4081 11.018 40.8041 10.628 41.2961 10.352C41.8001 10.064 42.3941 9.92 43.0781 9.92V12.044H42.5561C41.7521 12.044 41.1401 12.248 40.7201 12.656C40.3121 13.064 40.1081 13.772 40.1081 14.78V20H38.0561V10.082H40.1081V11.522ZM49.2663 20.162C48.3303 20.162 47.4843 19.952 46.7283 19.532C45.9723 19.1 45.3783 18.5 44.9463 17.732C44.5143 16.952 44.2983 16.052 44.2983 15.032C44.2983 14.024 44.5203 13.13 44.9643 12.35C45.4083 11.57 46.0143 10.97 46.7823 10.55C47.5503 10.13 48.4083 9.92 49.3563 9.92C50.3043 9.92 51.1623 10.13 51.9303 10.55C52.6983 10.97 53.3043 11.57 53.7483 12.35C54.1923 13.13 54.4143 14.024 54.4143 15.032C54.4143 16.04 54.1863 16.934 53.7303 17.714C53.2743 18.494 52.6503 19.1 51.8583 19.532C51.0783 19.952 50.2143 20.162 49.2663 20.162ZM49.2663 18.38C49.7943 18.38 50.2863 18.254 50.7423 18.002C51.2103 17.75 51.5883 17.372 51.8763 16.868C52.1643 16.364 52.3083 15.752 52.3083 15.032C52.3083 14.312 52.1703 13.706 51.8943 13.214C51.6183 12.71 51.2523 12.332 50.7963 12.08C50.3403 11.828 49.8483 11.702 49.3203 11.702C48.7923 11.702 48.3003 11.828 47.8443 12.08C47.4003 12.332 47.0463 12.71 46.7823 13.214C46.5183 13.706 46.3863 14.312 46.3863 15.032C46.3863 16.1 46.6563 16.928 47.1963 17.516C47.7483 18.092 48.4383 18.38 49.2663 18.38ZM55.7588 14.996C55.7588 14 55.9628 13.118 56.3708 12.35C56.7908 11.582 57.3548 10.988 58.0628 10.568C58.7828 10.136 59.5808 9.92 60.4568 9.92C61.1048 9.92 61.7408 10.064 62.3648 10.352C63.0008 10.628 63.5048 11 63.8768 11.468V6.68L65.9468 6.68V20H63.8768V18.506C63.5408 18.986 63.0728 19.382 62.4728 19.694C61.8848 20.006 61.2068 20.162 60.4388 20.162C59.5748 20.162 58.7828 19.946 58.0628 19.514C57.3548 19.07 56.7908 18.458 56.3708 17.678C55.9628 16.886 55.7588 15.992 55.7588 14.996ZM63.8768 15.032C63.8768 14.348 63.7328 13.754 63.4448 13.25C63.1688 12.746 62.8028 12.362 62.3468 12.098C61.8908 11.834 61.3988 11.702 60.8708 11.702C60.3428 11.702 59.8508 11.834 59.3948 12.098C58.9388 12.35 58.5668 12.728 58.2788 13.232C58.0028 13.724 57.8648 14.312 57.8648 14.996C57.8648 15.68 58.0028 16.28 58.2788 16.796C58.5668 17.312 58.9388 17.708 59.3948 17.984C59.8628 18.248 60.3548 18.38 60.8708 18.38C61.3988 18.38 61.8908 18.248 62.3468 17.984C62.8028 17.72 63.1688 17.336 63.4448 16.832C63.7328 16.316 63.8768 15.716 63.8768 15.032ZM77.624 10.082V20H75.572V18.83C75.248 19.238 74.822 19.562 74.294 19.802C73.778 20.03 73.226 20.144 72.638 20.144C71.858 20.144 71.156 19.982 70.532 19.658C69.92 19.334 69.434 18.854 69.074 18.218C68.726 17.582 68.552 16.814 68.552 15.914V10.082H70.586V15.608C70.586 16.496 70.808 17.18 71.252 17.66C71.696 18.128 72.302 18.362 73.07 18.362C73.838 18.362 74.444 18.128 74.888 17.66C75.344 17.18 75.572 16.496 75.572 15.608V10.082H77.624ZM79.6474 15.032C79.6474 14.012 79.8514 13.118 80.2594 12.35C80.6794 11.57 81.2554 10.97 81.9874 10.55C82.7194 10.13 83.5594 9.92 84.5074 9.92C85.7074 9.92 86.6974 10.208 87.4774 10.784C88.2694 11.348 88.8034 12.158 89.0794 13.214H86.8654C86.6854 12.722 86.3974 12.338 86.0014 12.062C85.6054 11.786 85.1074 11.648 84.5074 11.648C83.6674 11.648 82.9954 11.948 82.4914 12.548C81.9994 13.136 81.7534 13.964 81.7534 15.032C81.7534 16.1 81.9994 16.934 82.4914 17.534C82.9954 18.134 83.6674 18.434 84.5074 18.434C85.6954 18.434 86.4814 17.912 86.8654 16.868H89.0794C88.7914 17.876 88.2514 18.68 87.4594 19.28C86.6674 19.868 85.6834 20.162 84.5074 20.162C83.5594 20.162 82.7194 19.952 81.9874 19.532C81.2554 19.1 80.6794 18.5 80.2594 17.732C79.8514 16.952 79.6474 16.052 79.6474 15.032ZM93.5184 11.756V17.246C93.5184 17.618 93.6024 17.888 93.7704 18.056C93.9504 18.212 94.2504 18.29 94.6704 18.29H95.9304V20H94.3104C93.3864 20 92.6784 19.784 92.1864 19.352C91.6944 18.92 91.4484 18.218 91.4484 17.246V11.756H90.2784V10.082H91.4484V7.616L93.5184 7.616V10.082L95.9304 10.082V11.756L93.5184 11.756ZM101.813 14.996C101.813 14 102.017 13.118 102.425 12.35C102.845 11.582 103.409 10.988 104.117 10.568C104.837 10.136 105.635 9.92 106.511 9.92C107.159 9.92 107.795 10.064 108.419 10.352C109.055 10.628 109.559 11 109.931 11.468V6.68H112.001V20H109.931V18.506C109.595 18.986 109.127 19.382 108.527 19.694C107.939 20.006 107.261 20.162 106.493 20.162C105.629 20.162 104.837 19.946 104.117 19.514C103.409 19.07 102.845 18.458 102.425 17.678C102.017 16.886 101.813 15.992 101.813 14.996ZM109.931 15.032C109.931 14.348 109.787 13.754 109.499 13.25C109.223 12.746 108.857 12.362 108.401 12.098C107.945 11.834 107.453 11.702 106.925 11.702C106.397 11.702 105.905 11.834 105.449 12.098C104.993 12.35 104.621 12.728 104.333 13.232C104.057 13.724 103.919 14.312 103.919 14.996C103.919 15.68 104.057 16.28 104.333 16.796C104.621 17.312 104.993 17.708 105.449 17.984C105.917 18.248 106.409 18.38 106.925 18.38C107.453 18.38 107.945 18.248 108.401 17.984C108.857 17.72 109.223 17.336 109.499 16.832C109.787 16.316 109.931 15.716 109.931 15.032ZM123.787 14.798C123.787 15.17 123.763 15.506 123.715 15.806L116.137 15.806C116.197 16.598 116.491 17.234 117.019 17.714C117.547 18.194 118.195 18.434 118.963 18.434C120.067 18.434 120.847 17.972 121.303 17.048L123.517 17.048C123.217 17.96 122.671 18.71 121.879 19.298C121.099 19.874 120.127 20.162 118.963 20.162C118.015 20.162 117.163 19.952 116.407 19.532C115.663 19.1 115.075 18.5 114.643 17.732C114.223 16.952 114.013 16.052 114.013 15.032C114.013 14.012 114.217 13.118 114.625 12.35C115.045 11.57 115.627 10.97 116.371 10.55C117.127 10.13 117.991 9.92 118.963 9.92C119.899 9.92 120.733 10.124 121.465 10.532C122.197 10.94 122.767 11.516 123.175 12.26C123.583 12.992 123.787 13.838 123.787 14.798ZM121.645 14.15C121.633 13.394 121.363 12.788 120.835 12.332C120.307 11.876 119.653 11.648 118.873 11.648C118.165 11.648 117.559 11.876 117.055 12.332C116.551 12.776 116.251 13.382 116.155 14.15L121.645 14.15ZM129.406 20.162C128.626 20.162 127.924 20.024 127.3 19.748C126.688 19.46 126.202 19.076 125.842 18.596C125.482 18.104 125.29 17.558 125.266 16.958H127.39C127.426 17.378 127.624 17.732 127.984 18.02C128.356 18.296 128.818 18.434 129.37 18.434C129.946 18.434 130.39 18.326 130.702 18.11C131.026 17.882 131.188 17.594 131.188 17.246C131.188 16.874 131.008 16.598 130.648 16.418C130.3 16.238 129.742 16.04 128.974 15.824C128.23 15.62 127.624 15.422 127.156 15.23C126.688 15.038 126.28 14.744 125.932 14.348C125.596 13.952 125.428 13.43 125.428 12.782C125.428 12.254 125.584 11.774 125.896 11.342C126.208 10.898 126.652 10.55 127.228 10.298C127.816 10.046 128.488 9.92 129.244 9.92C130.372 9.92 131.278 10.208 131.962 10.784C132.658 11.348 133.03 12.122 133.078 13.106H131.026C130.99 12.662 130.81 12.308 130.486 12.044C130.162 11.78 129.724 11.648 129.172 11.648C128.632 11.648 128.218 11.75 127.93 11.954C127.642 12.158 127.498 12.428 127.498 12.764C127.498 13.028 127.594 13.25 127.786 13.43C127.978 13.61 128.212 13.754 128.488 13.862C128.764 13.958 129.172 14.084 129.712 14.24C130.432 14.432 131.02 14.63 131.476 14.834C131.944 15.026 132.346 15.314 132.682 15.698C133.018 16.082 133.192 16.592 133.204 17.228C133.204 17.792 133.048 18.296 132.736 18.74C132.424 19.184 131.98 19.532 131.404 19.784C130.84 20.036 130.174 20.162 129.406 20.162ZM136.465 8.768C136.093 8.768 135.781 8.642 135.529 8.39C135.277 8.138 135.151 7.826 135.151 7.454C135.151 7.082 135.277 6.77 135.529 6.518C135.781 6.266 136.093 6.14 136.465 6.14C136.825 6.14 137.131 6.266 137.383 6.518C137.635 6.77 137.761 7.082 137.761 7.454C137.761 7.826 137.635 8.138 137.383 8.39C137.131 8.642 136.825 8.768 136.465 8.768ZM137.473 10.082V20H135.421V10.082L137.473 10.082ZM144.163 9.92C144.931 9.92 145.609 10.076 146.197 10.388C146.797 10.688 147.265 11.066 147.601 11.522V10.082L149.671 10.082V20.162C149.671 21.074 149.479 21.884 149.095 22.592C148.711 23.312 148.153 23.876 147.421 24.284C146.701 24.692 145.837 24.896 144.829 24.896C143.485 24.896 142.369 24.578 141.481 23.942C140.593 23.318 140.089 22.466 139.969 21.386H142.003C142.159 21.902 142.489 22.316 142.993 22.628C143.509 22.952 144.121 23.114 144.829 23.114C145.657 23.114 146.323 22.862 146.827 22.358C147.343 21.854 147.601 21.122 147.601 20.162V18.506C147.253 18.974 146.779 19.37 146.179 19.694C145.591 20.006 144.919 20.162 144.163 20.162C143.299 20.162 142.507 19.946 141.787 19.514C141.079 19.07 140.515 18.458 140.095 17.678C139.687 16.886 139.483 15.992 139.483 14.996C139.483 14 139.687 13.118 140.095 12.35C140.515 11.582 141.079 10.988 141.787 10.568C142.507 10.136 143.299 9.92 144.163 9.92ZM147.601 15.032C147.601 14.348 147.457 13.754 147.169 13.25C146.893 12.746 146.527 12.362 146.071 12.098C145.615 11.834 145.123 11.702 144.595 11.702C144.067 11.702 143.575 11.834 143.119 12.098C142.663 12.35 142.291 12.728 142.003 13.232C141.727 13.724 141.589 14.312 141.589 14.996C141.589 15.68 141.727 16.28 142.003 16.796C142.291 17.312 142.663 17.708 143.119 17.984C143.587 18.248 144.079 18.38 144.595 18.38C145.123 18.38 145.615 18.248 146.071 17.984C146.527 17.72 146.893 17.336 147.169 16.832C147.457 16.316 147.601 15.716 147.601 15.032ZM157.371 9.92C158.151 9.92 158.847 10.082 159.459 10.406C160.083 10.73 160.569 11.21 160.917 11.846C161.265 12.482 161.439 13.25 161.439 14.15V20H159.405V14.456C159.405 13.568 159.183 12.89 158.739 12.422C158.295 11.942 157.689 11.702 156.921 11.702C156.153 11.702 155.541 11.942 155.085 12.422C154.641 12.89 154.419 13.568 154.419 14.456V20H152.367V10.082H154.419V11.216C154.755 10.808 155.181 10.49 155.697 10.262C156.225 10.034 156.783 9.92 157.371 9.92Z" fill="#A3A3A3"/>
<path d="M1.86626 10.842C1.94388 10.3569 2.3624 10 2.8537 10H13.1483C13.6396 10 14.0581 10.3569 14.1357 10.842L15.8157 21.342C15.9129 21.9496 15.4436 22.5 14.8283 22.5H1.1737C0.558384 22.5 0.0890416 21.9496 0.186255 21.342L1.86626 10.842Z" fill="#A3A3A3"/>
<path d="M5.0006 10C4.83393 8.33333 5.2006 5 8.0006 5C11.5006 5 11.5005 9 11.5005 10" stroke="#A3A3A3" stroke-width="1.5" stroke-linecap="round" stroke-linejoin="round"/>
</svg>
