<svg width="189" height="27" viewBox="0 0 189 27" fill="none" xmlns="http://www.w3.org/2000/svg">
<path d="M37.713 7.49V9.164L32.403 9.164V12.854L36.543 12.854V14.528L32.403 14.528V20H30.351L30.351 7.49L37.713 7.49ZM48.7046 14.798C48.7046 15.17 48.6806 15.506 48.6326 15.806L41.0546 15.806C41.1146 16.598 41.4086 17.234 41.9366 17.714C42.4646 18.194 43.1126 18.434 43.8806 18.434C44.9846 18.434 45.7646 17.972 46.2206 17.048H48.4346C48.1346 17.96 47.5886 18.71 46.7966 19.298C46.0166 19.874 45.0446 20.162 43.8806 20.162C42.9326 20.162 42.0806 19.952 41.3246 19.532C40.5806 19.1 39.9926 18.5 39.5606 17.732C39.1406 16.952 38.9306 16.052 38.9306 15.032C38.9306 14.012 39.1346 13.118 39.5426 12.35C39.9626 11.57 40.5446 10.97 41.2886 10.55C42.0446 10.13 42.9086 9.92 43.8806 9.92C44.8166 9.92 45.6506 10.124 46.3826 10.532C47.1146 10.94 47.6846 11.516 48.0926 12.26C48.5006 12.992 48.7046 13.838 48.7046 14.798ZM46.5626 14.15C46.5506 13.394 46.2806 12.788 45.7526 12.332C45.2246 11.876 44.5706 11.648 43.7906 11.648C43.0826 11.648 42.4766 11.876 41.9726 12.332C41.4686 12.776 41.1686 13.382 41.0726 14.15L46.5626 14.15ZM50.04 14.996C50.04 14 50.244 13.118 50.652 12.35C51.072 11.582 51.636 10.988 52.344 10.568C53.064 10.136 53.856 9.92 54.72 9.92C55.5 9.92 56.178 10.076 56.754 10.388C57.342 10.688 57.81 11.066 58.158 11.522V10.082H60.228V20H58.158V18.524C57.81 18.992 57.336 19.382 56.736 19.694C56.136 20.006 55.452 20.162 54.684 20.162C53.832 20.162 53.052 19.946 52.344 19.514C51.636 19.07 51.072 18.458 50.652 17.678C50.244 16.886 50.04 15.992 50.04 14.996ZM58.158 15.032C58.158 14.348 58.014 13.754 57.726 13.25C57.45 12.746 57.084 12.362 56.628 12.098C56.172 11.834 55.68 11.702 55.152 11.702C54.624 11.702 54.132 11.834 53.676 12.098C53.22 12.35 52.848 12.728 52.56 13.232C52.284 13.724 52.146 14.312 52.146 14.996C52.146 15.68 52.284 16.28 52.56 16.796C52.848 17.312 53.22 17.708 53.676 17.984C54.144 18.248 54.636 18.38 55.152 18.38C55.68 18.38 56.172 18.248 56.628 17.984C57.084 17.72 57.45 17.336 57.726 16.832C58.014 16.316 58.158 15.716 58.158 15.032ZM65.3172 11.756V17.246C65.3172 17.618 65.4012 17.888 65.5692 18.056C65.7492 18.212 66.0492 18.29 66.4692 18.29H67.7292V20H66.1092C65.1852 20 64.4772 19.784 63.9852 19.352C63.4932 18.92 63.2472 18.218 63.2472 17.246V11.756H62.0772V10.082H63.2472V7.616L65.3172 7.616V10.082L67.7292 10.082V11.756L65.3172 11.756ZM78.6025 10.082V20H76.5505V18.83C76.2265 19.238 75.8005 19.562 75.2725 19.802C74.7565 20.03 74.2045 20.144 73.6165 20.144C72.8365 20.144 72.1345 19.982 71.5105 19.658C70.8985 19.334 70.4125 18.854 70.0525 18.218C69.7045 17.582 69.5305 16.814 69.5305 15.914V10.082H71.5645V15.608C71.5645 16.496 71.7865 17.18 72.2305 17.66C72.6745 18.128 73.2805 18.362 74.0485 18.362C74.8165 18.362 75.4225 18.128 75.8665 17.66C76.3225 17.18 76.5505 16.496 76.5505 15.608V10.082L78.6025 10.082ZM83.362 11.522C83.662 11.018 84.058 10.628 84.55 10.352C85.054 10.064 85.648 9.92 86.332 9.92V12.044H85.81C85.006 12.044 84.394 12.248 83.974 12.656C83.566 13.064 83.362 13.772 83.362 14.78V20L81.31 20V10.082H83.362V11.522ZM97.3082 14.798C97.3082 15.17 97.2842 15.506 97.2362 15.806H89.6582C89.7182 16.598 90.0122 17.234 90.5402 17.714C91.0682 18.194 91.7162 18.434 92.4842 18.434C93.5882 18.434 94.3682 17.972 94.8242 17.048H97.0382C96.7382 17.96 96.1922 18.71 95.4002 19.298C94.6202 19.874 93.6482 20.162 92.4842 20.162C91.5362 20.162 90.6842 19.952 89.9282 19.532C89.1842 19.1 88.5962 18.5 88.1642 17.732C87.7442 16.952 87.5342 16.052 87.5342 15.032C87.5342 14.012 87.7382 13.118 88.1462 12.35C88.5662 11.57 89.1482 10.97 89.8922 10.55C90.6482 10.13 91.5122 9.92 92.4842 9.92C93.4202 9.92 94.2542 10.124 94.9862 10.532C95.7182 10.94 96.2882 11.516 96.6962 12.26C97.1042 12.992 97.3082 13.838 97.3082 14.798ZM95.1662 14.15C95.1542 13.394 94.8842 12.788 94.3562 12.332C93.8282 11.876 93.1742 11.648 92.3942 11.648C91.6862 11.648 91.0802 11.876 90.5762 12.332C90.0722 12.776 89.7722 13.382 89.6762 14.15H95.1662ZM98.6435 14.996C98.6435 14 98.8475 13.118 99.2555 12.35C99.6755 11.582 100.24 10.988 100.948 10.568C101.668 10.136 102.466 9.92 103.342 9.92C103.99 9.92 104.626 10.064 105.25 10.352C105.886 10.628 106.39 11 106.762 11.468V6.68H108.832V20H106.762V18.506C106.426 18.986 105.958 19.382 105.358 19.694C104.77 20.006 104.092 20.162 103.324 20.162C102.46 20.162 101.668 19.946 100.948 19.514C100.24 19.07 99.6755 18.458 99.2555 17.678C98.8475 16.886 98.6435 15.992 98.6435 14.996ZM106.762 15.032C106.762 14.348 106.618 13.754 106.33 13.25C106.054 12.746 105.688 12.362 105.232 12.098C104.776 11.834 104.284 11.702 103.756 11.702C103.228 11.702 102.736 11.834 102.28 12.098C101.824 12.35 101.452 12.728 101.164 13.232C100.888 13.724 100.75 14.312 100.75 14.996C100.75 15.68 100.888 16.28 101.164 16.796C101.452 17.312 101.824 17.708 102.28 17.984C102.748 18.248 103.24 18.38 103.756 18.38C104.284 18.38 104.776 18.248 105.232 17.984C105.688 17.72 106.054 17.336 106.33 16.832C106.618 16.316 106.762 15.716 106.762 15.032ZM118.255 11.54C118.603 11.084 119.077 10.7 119.677 10.388C120.277 10.076 120.955 9.92 121.711 9.92C122.575 9.92 123.361 10.136 124.069 10.568C124.789 10.988 125.353 11.582 125.761 12.35C126.169 13.118 126.373 14 126.373 14.996C126.373 15.992 126.169 16.886 125.761 17.678C125.353 18.458 124.789 19.07 124.069 19.514C123.361 19.946 122.575 20.162 121.711 20.162C120.955 20.162 120.283 20.012 119.695 19.712C119.107 19.4 118.627 19.016 118.255 18.56V24.716H116.203V10.082H118.255V11.54ZM124.285 14.996C124.285 14.312 124.141 13.724 123.853 13.232C123.577 12.728 123.205 12.35 122.737 12.098C122.281 11.834 121.789 11.702 121.261 11.702C120.745 11.702 120.253 11.834 119.785 12.098C119.329 12.362 118.957 12.746 118.669 13.25C118.393 13.754 118.255 14.348 118.255 15.032C118.255 15.716 118.393 16.316 118.669 16.832C118.957 17.336 119.329 17.72 119.785 17.984C120.253 18.248 120.745 18.38 121.261 18.38C121.789 18.38 122.281 18.248 122.737 17.984C123.205 17.708 123.577 17.312 123.853 16.796C124.141 16.28 124.285 15.68 124.285 14.996ZM130.454 11.522C130.754 11.018 131.15 10.628 131.642 10.352C132.146 10.064 132.74 9.92 133.424 9.92V12.044H132.902C132.098 12.044 131.486 12.248 131.066 12.656C130.658 13.064 130.454 13.772 130.454 14.78V20H128.402V10.082L130.454 10.082V11.522ZM139.612 20.162C138.676 20.162 137.83 19.952 137.074 19.532C136.318 19.1 135.724 18.5 135.292 17.732C134.86 16.952 134.644 16.052 134.644 15.032C134.644 14.024 134.866 13.13 135.31 12.35C135.754 11.57 136.36 10.97 137.128 10.55C137.896 10.13 138.754 9.92 139.702 9.92C140.65 9.92 141.508 10.13 142.276 10.55C143.044 10.97 143.65 11.57 144.094 12.35C144.538 13.13 144.76 14.024 144.76 15.032C144.76 16.04 144.532 16.934 144.076 17.714C143.62 18.494 142.996 19.1 142.204 19.532C141.424 19.952 140.56 20.162 139.612 20.162ZM139.612 18.38C140.14 18.38 140.632 18.254 141.088 18.002C141.556 17.75 141.934 17.372 142.222 16.868C142.51 16.364 142.654 15.752 142.654 15.032C142.654 14.312 142.516 13.706 142.24 13.214C141.964 12.71 141.598 12.332 141.142 12.08C140.686 11.828 140.194 11.702 139.666 11.702C139.138 11.702 138.646 11.828 138.19 12.08C137.746 12.332 137.392 12.71 137.128 13.214C136.864 13.706 136.732 14.312 136.732 15.032C136.732 16.1 137.002 16.928 137.542 17.516C138.094 18.092 138.784 18.38 139.612 18.38ZM147.832 8.768C147.46 8.768 147.148 8.642 146.896 8.39C146.644 8.138 146.518 7.826 146.518 7.454C146.518 7.082 146.644 6.77 146.896 6.518C147.148 6.266 147.46 6.14 147.832 6.14C148.192 6.14 148.498 6.266 148.75 6.518C149.002 6.77 149.128 7.082 149.128 7.454C149.128 7.826 149.002 8.138 148.75 8.39C148.498 8.642 148.192 8.768 147.832 8.768ZM148.84 21.944C148.84 22.916 148.594 23.618 148.102 24.05C147.622 24.494 146.92 24.716 145.996 24.716L144.934 24.716V22.988H145.636C146.056 22.988 146.35 22.904 146.518 22.736C146.698 22.58 146.788 22.316 146.788 21.944V10.082H148.84V21.944ZM160.625 14.798C160.625 15.17 160.601 15.506 160.553 15.806H152.975C153.035 16.598 153.329 17.234 153.857 17.714C154.385 18.194 155.033 18.434 155.801 18.434C156.905 18.434 157.685 17.972 158.141 17.048H160.355C160.055 17.96 159.509 18.71 158.717 19.298C157.937 19.874 156.965 20.162 155.801 20.162C154.853 20.162 154.001 19.952 153.245 19.532C152.501 19.1 151.913 18.5 151.481 17.732C151.061 16.952 150.851 16.052 150.851 15.032C150.851 14.012 151.055 13.118 151.463 12.35C151.883 11.57 152.465 10.97 153.209 10.55C153.965 10.13 154.829 9.92 155.801 9.92C156.737 9.92 157.571 10.124 158.303 10.532C159.035 10.94 159.605 11.516 160.013 12.26C160.421 12.992 160.625 13.838 160.625 14.798ZM158.483 14.15C158.471 13.394 158.201 12.788 157.673 12.332C157.145 11.876 156.491 11.648 155.711 11.648C155.003 11.648 154.397 11.876 153.893 12.332C153.389 12.776 153.089 13.382 152.993 14.15H158.483ZM161.96 15.032C161.96 14.012 162.164 13.118 162.572 12.35C162.992 11.57 163.568 10.97 164.3 10.55C165.032 10.13 165.872 9.92 166.82 9.92C168.02 9.92 169.01 10.208 169.79 10.784C170.582 11.348 171.116 12.158 171.392 13.214H169.178C168.998 12.722 168.71 12.338 168.314 12.062C167.918 11.786 167.42 11.648 166.82 11.648C165.98 11.648 165.308 11.948 164.804 12.548C164.312 13.136 164.066 13.964 164.066 15.032C164.066 16.1 164.312 16.934 164.804 17.534C165.308 18.134 165.98 18.434 166.82 18.434C168.008 18.434 168.794 17.912 169.178 16.868H171.392C171.104 17.876 170.564 18.68 169.772 19.28C168.98 19.868 167.996 20.162 166.82 20.162C165.872 20.162 165.032 19.952 164.3 19.532C163.568 19.1 162.992 18.5 162.572 17.732C162.164 16.952 161.96 16.052 161.96 15.032ZM175.831 11.756V17.246C175.831 17.618 175.915 17.888 176.083 18.056C176.263 18.212 176.563 18.29 176.983 18.29H178.243V20H176.623C175.699 20 174.991 19.784 174.499 19.352C174.007 18.92 173.761 18.218 173.761 17.246V11.756H172.591V10.082H173.761V7.616L175.831 7.616V10.082H178.243V11.756H175.831ZM183.734 20.162C182.954 20.162 182.252 20.024 181.628 19.748C181.016 19.46 180.53 19.076 180.17 18.596C179.81 18.104 179.618 17.558 179.594 16.958H181.718C181.754 17.378 181.952 17.732 182.312 18.02C182.684 18.296 183.146 18.434 183.698 18.434C184.274 18.434 184.718 18.326 185.03 18.11C185.354 17.882 185.516 17.594 185.516 17.246C185.516 16.874 185.336 16.598 184.976 16.418C184.628 16.238 184.07 16.04 183.302 15.824C182.558 15.62 181.952 15.422 181.484 15.23C181.016 15.038 180.608 14.744 180.26 14.348C179.924 13.952 179.756 13.43 179.756 12.782C179.756 12.254 179.912 11.774 180.224 11.342C180.536 10.898 180.98 10.55 181.556 10.298C182.144 10.046 182.816 9.92 183.572 9.92C184.7 9.92 185.606 10.208 186.29 10.784C186.986 11.348 187.358 12.122 187.406 13.106H185.354C185.318 12.662 185.138 12.308 184.814 12.044C184.49 11.78 184.052 11.648 183.5 11.648C182.96 11.648 182.546 11.75 182.258 11.954C181.97 12.158 181.826 12.428 181.826 12.764C181.826 13.028 181.922 13.25 182.114 13.43C182.306 13.61 182.54 13.754 182.816 13.862C183.092 13.958 183.5 14.084 184.04 14.24C184.76 14.432 185.348 14.63 185.804 14.834C186.272 15.026 186.674 15.314 187.01 15.698C187.346 16.082 187.52 16.592 187.532 17.228C187.532 17.792 187.376 18.296 187.064 18.74C186.752 19.184 186.308 19.532 185.732 19.784C185.168 20.036 184.502 20.162 183.734 20.162Z" fill="#A3A3A3"/>
<path d="M11.0499 4.92705C11.3493 4.00574 12.6527 4.00574 12.952 4.92705L14.4706 9.60081C14.6045 10.0128 14.9885 10.2918 15.4217 10.2918H20.336C21.3047 10.2918 21.7075 11.5314 20.9238 12.1008L16.948 14.9894C16.5975 15.244 16.4509 15.6954 16.5847 16.1074L18.1033 20.7812C18.4027 21.7025 17.3482 22.4686 16.5645 21.8992L12.5888 19.0106C12.2383 18.756 11.7637 18.756 11.4132 19.0106L7.43745 21.8992C6.65374 22.4686 5.59926 21.7025 5.89861 20.7812L7.41721 16.1074C7.55108 15.6954 7.40442 15.244 7.05394 14.9894L3.0782 12.1008C2.29448 11.5314 2.69726 10.2918 3.66598 10.2918H8.58027C9.01349 10.2918 9.39745 10.0128 9.53132 9.60081L11.0499 4.92705Z" fill="#A3A3A3"/>
</svg>
