<svg width="51" height="27" viewBox="0 0 51 27" fill="none" xmlns="http://www.w3.org/2000/svg">
<path d="M29.385 7.49L29.385 15.464C29.385 16.412 29.631 17.126 30.123 17.606C30.627 18.086 31.323 18.326 32.211 18.326C33.111 18.326 33.807 18.086 34.299 17.606C34.803 17.126 35.055 16.412 35.055 15.464V7.49H37.107V15.428C37.107 16.448 36.885 17.312 36.441 18.02C35.997 18.728 35.403 19.256 34.659 19.604C33.915 19.952 33.093 20.126 32.193 20.126C31.293 20.126 30.471 19.952 29.727 19.604C28.995 19.256 28.413 18.728 27.981 18.02C27.549 17.312 27.333 16.448 27.333 15.428L27.333 7.49L29.385 7.49ZM45.5207 13.754L49.4087 20H47.1047L44.2787 15.464L41.6327 20H39.3467L43.2347 13.754L39.3287 7.49H41.6327L44.4767 12.062L47.1407 7.49H49.4267L45.5207 13.754Z" fill="#A3A3A3"/>
<rect x="0.000976562" y="5" width="7.28571" height="7.28571" rx="1" fill="#A3A3A3"/>
<rect x="9.71582" y="5" width="7.28571" height="7.28571" rx="1" fill="#A3A3A3"/>
<rect x="9.71582" y="14.7144" width="7.28571" height="7.28571" rx="1" fill="#A3A3A3"/>
<rect x="0.000976562" y="14.7144" width="7.28571" height="7.28571" rx="1" fill="#A3A3A3"/>
</svg>
