<svg width="48" height="27" viewBox="0 0 48 27" fill="none" xmlns="http://www.w3.org/2000/svg">
<path d="M33.385 7.49V15.464C33.385 16.412 33.631 17.126 34.123 17.606C34.627 18.086 35.323 18.326 36.211 18.326C37.111 18.326 37.807 18.086 38.299 17.606C38.803 17.126 39.055 16.412 39.055 15.464V7.49H41.107V15.428C41.107 16.448 40.885 17.312 40.441 18.02C39.997 18.728 39.403 19.256 38.659 19.604C37.915 19.952 37.093 20.126 36.193 20.126C35.293 20.126 34.471 19.952 33.727 19.604C32.995 19.256 32.413 18.728 31.981 18.02C31.549 17.312 31.333 16.448 31.333 15.428L31.333 7.49L33.385 7.49ZM45.8307 7.49V20H43.7787V7.49H45.8307Z" fill="#A3A3A3"/>
<path d="M6.90723 24V19H8.87598C8.87598 16.7778 7.12598 15.8519 6.25098 15.6667L11.501 7.33333L16.751 15.6667C14.651 16.1111 14.126 18.0741 14.126 19H16.0947V24H6.90723Z" fill="#A3A3A3"/>
<path d="M11.501 4C5.72598 4 2.96973 8.07407 2.31348 10.1111H4.28223V12.8889H1.00098V10.1111H2.31348C2.96973 8.07407 5.72598 4 11.501 4C17.276 4 20.0322 8.07407 20.6885 10.1111H22.001V12.8889H18.7197V10.1111H20.6885C20.0322 8.07407 17.276 4 11.501 4Z" fill="#A3A3A3"/>
<path d="M14.126 19H16.0947V24H6.90723V19H8.87598M14.126 19C14.126 18.0741 14.651 16.1111 16.751 15.6667L11.501 7.33333M14.126 19H8.87598M11.501 7.33333L6.25098 15.6667C7.12598 15.8519 8.87598 16.7778 8.87598 19M11.501 7.33333V12.3333M2.31348 10.1111C2.96973 8.07407 5.72598 4 11.501 4C17.276 4 20.0322 8.07407 20.6885 10.1111M2.31348 10.1111H1.00098V12.8889H4.28223V10.1111H2.31348ZM20.6885 10.1111H18.7197V12.8889H22.001V10.1111H20.6885ZM2.31348 4H20.6885" stroke="#A9A9A9" stroke-linecap="round" stroke-linejoin="round"/>
</svg>
